<svg width="51" height="30" viewBox="0 0 51 30" fill="none" xmlns="http://www.w3.org/2000/svg">
<path d="M13.8281 3.08203L4.41406 29H0.566406L11.4062 0.5625H13.8867L13.8281 3.08203ZM21.7188 29L12.2852 3.08203L12.2266 0.5625H14.707L25.5859 29H21.7188ZM21.2305 18.4727V21.5586H5.25391V18.4727H21.2305ZM46.3281 19.957H50.0781C49.8828 21.7539 49.3685 23.362 48.5352 24.7812C47.7018 26.2005 46.5234 27.3268 45 28.1602C43.4766 28.9805 41.5755 29.3906 39.2969 29.3906C37.6302 29.3906 36.1133 29.0781 34.7461 28.4531C33.3919 27.8281 32.2266 26.9427 31.25 25.7969C30.2734 24.638 29.5182 23.2513 28.9844 21.6367C28.4635 20.0091 28.2031 18.1992 28.2031 16.207V13.375C28.2031 11.3828 28.4635 9.57943 28.9844 7.96484C29.5182 6.33724 30.2799 4.94401 31.2695 3.78516C32.2721 2.6263 33.4766 1.73438 34.8828 1.10938C36.2891 0.484375 37.8711 0.171875 39.6289 0.171875C41.7773 0.171875 43.5938 0.575521 45.0781 1.38281C46.5625 2.1901 47.7148 3.3099 48.5352 4.74219C49.3685 6.16146 49.8828 7.80859 50.0781 9.68359H46.3281C46.1458 8.35547 45.8073 7.21615 45.3125 6.26562C44.8177 5.30208 44.1146 4.5599 43.2031 4.03906C42.2917 3.51823 41.1003 3.25781 39.6289 3.25781C38.3659 3.25781 37.2526 3.4987 36.2891 3.98047C35.3385 4.46224 34.5378 5.14583 33.8867 6.03125C33.2487 6.91667 32.7669 7.97786 32.4414 9.21484C32.1159 10.4518 31.9531 11.8255 31.9531 13.3359V16.207C31.9531 17.6003 32.0964 18.9089 32.3828 20.1328C32.6823 21.3568 33.1315 22.431 33.7305 23.3555C34.3294 24.2799 35.0911 25.0091 36.0156 25.543C36.9401 26.0638 38.0339 26.3242 39.2969 26.3242C40.8984 26.3242 42.1745 26.0703 43.125 25.5625C44.0755 25.0547 44.7917 24.3255 45.2734 23.375C45.7682 22.4245 46.1198 21.2852 46.3281 19.957Z" fill="white"/>
</svg>
