<svg width="25" height="25" viewBox="0 0 25 25" fill="none" xmlns="http://www.w3.org/2000/svg">
<path d="M24.0547 10.625V14.9375H0.664062V10.625H24.0547ZM9.82812 3.26562C9.82812 2.51562 10.0547 1.89062 10.5078 1.39062C10.9609 0.890625 11.625 0.640625 12.5 0.640625C13.375 0.640625 14.0391 0.890625 14.4922 1.39062C14.9609 1.89062 15.1953 2.51562 15.1953 3.26562C15.1953 3.98438 14.9609 4.59375 14.4922 5.09375C14.0391 5.57812 13.375 5.82031 12.5 5.82031C11.625 5.82031 10.9609 5.57812 10.5078 5.09375C10.0547 4.59375 9.82812 3.98438 9.82812 3.26562ZM9.82812 22.3906C9.82812 21.6562 10.0547 21.0391 10.5078 20.5391C10.9609 20.0234 11.625 19.7656 12.5 19.7656C13.375 19.7656 14.0391 20.0234 14.4922 20.5391C14.9609 21.0391 15.1953 21.6562 15.1953 22.3906C15.1953 23.1094 14.9609 23.7188 14.4922 24.2188C14.0391 24.7188 13.375 24.9688 12.5 24.9688C11.625 24.9688 10.9609 24.7188 10.5078 24.2188C10.0547 23.7188 9.82812 23.1094 9.82812 22.3906Z" fill="white"/>
</svg>
