<svg width="32" height="36" viewBox="0 0 32 36" fill="none" xmlns="http://www.w3.org/2000/svg">
<path d="M0.460938 9.24219V7.4375C0.460938 6.14063 0.742188 4.96094 1.30469 3.89844C1.86719 2.83594 2.67188 1.98437 3.71875 1.34375C4.76562 0.703125 6.00781 0.382812 7.44531 0.382812C8.91406 0.382812 10.1641 0.703125 11.1953 1.34375C12.2422 1.98437 13.0469 2.83594 13.6094 3.89844C14.1719 4.96094 14.4531 6.14063 14.4531 7.4375V9.24219C14.4531 10.5078 14.1719 11.6719 13.6094 12.7344C13.0625 13.7969 12.2656 14.6484 11.2188 15.2891C10.1875 15.9297 8.94531 16.25 7.49219 16.25C6.03906 16.25 4.78125 15.9297 3.71875 15.2891C2.67188 14.6484 1.86719 13.7969 1.30469 12.7344C0.742188 11.6719 0.460938 10.5078 0.460938 9.24219ZM3.71875 7.4375V9.24219C3.71875 9.96094 3.85156 10.6406 4.11719 11.2812C4.39844 11.9219 4.82031 12.4453 5.38281 12.8516C5.94531 13.2422 6.64844 13.4375 7.49219 13.4375C8.33594 13.4375 9.03125 13.2422 9.57812 12.8516C10.125 12.4453 10.5312 11.9219 10.7969 11.2812C11.0625 10.6406 11.1953 9.96094 11.1953 9.24219V7.4375C11.1953 6.70313 11.0547 6.01562 10.7734 5.375C10.5078 4.71875 10.0938 4.19531 9.53125 3.80469C8.98438 3.39844 8.28906 3.19531 7.44531 3.19531C6.61719 3.19531 5.92188 3.39844 5.35938 3.80469C4.8125 4.19531 4.39844 4.71875 4.11719 5.375C3.85156 6.01562 3.71875 6.70313 3.71875 7.4375ZM17.0781 28.4609V26.6328C17.0781 25.3516 17.3594 24.1797 17.9219 23.1172C18.4844 22.0547 19.2891 21.2031 20.3359 20.5625C21.3828 19.9219 22.625 19.6016 24.0625 19.6016C25.5312 19.6016 26.7812 19.9219 27.8125 20.5625C28.8594 21.2031 29.6641 22.0547 30.2266 23.1172C30.7891 24.1797 31.0703 25.3516 31.0703 26.6328V28.4609C31.0703 29.7422 30.7891 30.9141 30.2266 31.9766C29.6797 33.0391 28.8828 33.8906 27.8359 34.5312C26.8047 35.1719 25.5625 35.4922 24.1094 35.4922C22.6562 35.4922 21.4062 35.1719 20.3594 34.5312C19.3125 33.8906 18.5 33.0391 17.9219 31.9766C17.3594 30.9141 17.0781 29.7422 17.0781 28.4609ZM20.3359 26.6328V28.4609C20.3359 29.1797 20.4688 29.8672 20.7344 30.5234C21.0156 31.1641 21.4375 31.6875 22 32.0938C22.5625 32.4844 23.2656 32.6797 24.1094 32.6797C24.9531 32.6797 25.6484 32.4844 26.1953 32.0938C26.7578 31.6875 27.1719 31.1641 27.4375 30.5234C27.7031 29.8828 27.8359 29.1953 27.8359 28.4609V26.6328C27.8359 25.8984 27.6953 25.2109 27.4141 24.5703C27.1484 23.9297 26.7344 23.4141 26.1719 23.0234C25.625 22.6172 24.9219 22.4141 24.0625 22.4141C23.2344 22.4141 22.5391 22.6172 21.9766 23.0234C21.4297 23.4141 21.0156 23.9297 20.7344 24.5703C20.4688 25.2109 20.3359 25.8984 20.3359 26.6328ZM25.1406 5.72656L8.47656 32.3984L6.03906 30.8516L22.7031 4.17969L25.1406 5.72656Z" fill="white"/>
</svg>
